<?xml version="1.0" encoding="UTF-8" standalone="no"?>
<svg width="100%" height="100%" viewBox="0 0 512 512" version="1.1" xmlns="http://www.w3.org/2000/svg" style="fill-rule:evenodd;clip-rule:evenodd;stroke-linejoin:round;stroke-miterlimit:2;">
    <g transform="matrix(0.875,0,0,0.9375,16,12)">
        <path d="M192,72.533C192,67.824 187.903,64 182.857,64L73.143,64C68.097,64 64,67.824 64,72.533L64,192L192,192L192,72.533Z" style="fill:rgb(61,159,243);"/>
    </g>
    <g transform="matrix(0.875,0,0,1,16,1.42109e-14)">
        <rect x="64" y="192" width="128" height="128" style="fill:rgb(10,135,243);"/>
    </g>
    <g transform="matrix(0.9375,0,0,0.875,12,48)">
        <path d="M320,329.143C320,324.097 316.176,320 311.467,320L192,320L192,448L311.467,448C316.176,448 320,443.903 320,438.857L320,329.143Z" style="fill:rgb(6,99,179);"/>
    </g>
    <g transform="matrix(0.875,0,0,0.875,32,16)">
        <path d="M320,73.143C320,68.097 315.903,64 310.857,64L201.143,64C196.097,64 192,68.097 192,73.143L192,182.857C192,187.903 196.097,192 201.143,192L310.857,192C315.903,192 320,187.903 320,182.857L320,73.143Z" style="fill:rgb(10,135,243);"/>
    </g>
    <g transform="matrix(0.875,0,0,0.875,48,16)">
        <path d="M448,73.143C448,68.097 443.903,64 438.857,64L329.143,64C324.097,64 320,68.097 320,73.143L320,182.857C320,187.903 324.097,192 329.143,192L438.857,192C443.903,192 448,187.903 448,182.857L448,73.143Z" style="fill:rgb(9,119,213);"/>
    </g>
    <g transform="matrix(0.9375,0,0,0.9375,-228,260)">
        <path d="M448,72.533C443.29,72.533 439.467,68.71 439.467,64L320,64L320,183.467C320,188.176 323.824,192 328.533,192L448,192L448,72.533Z" style="fill:rgb(9,119,213);"/>
    </g>
    <g transform="matrix(0.875,0,0,0.875,48,32)">
        <path d="M448,201.143C448,196.097 443.903,192 438.857,192L329.143,192C324.097,192 320,196.097 320,201.143L320,310.857C320,315.903 324.097,320 329.143,320L438.857,320C443.903,320 448,315.903 448,310.857L448,201.143Z" style="fill:rgb(6,99,179);"/>
    </g>
    <g transform="matrix(0.875,0,0,0.875,48,48)">
        <path d="M448,329.143C448,324.097 443.903,320 438.857,320L329.143,320C324.097,320 320,324.097 320,329.143L320,438.857C320,443.903 324.097,448 329.143,448L438.857,448C443.903,448 448,443.903 448,438.857L448,329.143Z" style="fill:rgb(7,85,153);"/>
    </g>
</svg>
