<?xml version="1.0" encoding="UTF-8" standalone="no"?>
<!DOCTYPE svg PUBLIC "-//W3C//DTD SVG 1.1//EN" "http://www.w3.org/Graphics/SVG/1.1/DTD/svg11.dtd">
<svg width="100%" height="100%" viewBox="0 0 512 512" version="1.1" xmlns="http://www.w3.org/2000/svg" xmlns:xlink="http://www.w3.org/1999/xlink" xml:space="preserve" xmlns:serif="http://www.serif.com/" style="fill-rule:evenodd;clip-rule:evenodd;stroke-linejoin:round;stroke-miterlimit:2;">
    <path d="M152,184C152,184 152,176 152,176C152,171.585 155.585,168 160,168C164.415,168 168,171.585 168,176L168,184C168,184 176,184 176,184C180.415,184 184,180.415 184,176L184,80C184,75.585 180.415,72 176,72L80,72C75.585,72 72,75.585 72,80L72,176C72,180.415 75.585,184 80,184L88,184C88,184 88,176 88,176C88,171.585 91.585,168 96,168C100.415,168 104,171.585 104,176L104,184L152,184Z" style="fill:rgb(61,159,243);"/>
    <path d="M152,312C152,312 152,304 152,304C152,299.585 155.585,296 160,296C164.415,296 168,299.585 168,304L168,312C168,312 176,312 176,312C180.415,312 184,308.415 184,304L184,208C184,203.585 180.415,200 176,200L168,200C168,200 168,208 168,208C168,212.415 164.415,216 160,216C155.585,216 152,212.415 152,208L152,200C152,200 104,200 104,200C104,200 104,208 104,208C104,212.415 100.415,216 96,216C91.585,216 88,212.415 88,208L88,200C88,200 80,200 80,200C75.585,200 72,203.585 72,208L72,304C72,308.415 75.585,312 80,312L88,312C88,312 88,304 88,304C88,299.585 91.585,296 96,296C100.415,296 104,299.585 104,304L104,312L152,312Z" style="fill:rgb(10,135,243);"/>
    <path d="M184,424C184,424 176,424 176,424C171.585,424 168,420.415 168,416C168,411.585 171.585,408 176,408L184,408C184,408 184,360 184,360C184,360 176,360 176,360C171.585,360 168,356.415 168,352C168,347.585 171.585,344 176,344L184,344C184,344 184,336 184,336C184,331.585 180.415,328 176,328L168,328C168,328 168,336 168,336C168,340.415 164.415,344 160,344C155.585,344 152,340.415 152,336L152,328C152,328 104,328 104,328C104,328 104,336 104,336C104,340.415 100.415,344 96,344C91.585,344 88,340.415 88,336L88,328C88,328 80,328 80,328C75.585,328 72,331.585 72,336L72,432C72,436.415 75.585,440 80,440L176,440C180.415,440 184,436.415 184,432L184,424Z" style="fill:rgb(9,119,213);"/>
    <path d="M200,344C200,344 208,344 208,344C212.415,344 216,347.585 216,352C216,356.415 212.415,360 208,360L200,360C200,360 200,408 200,408C200,408 208,408 208,408C212.415,408 216,411.585 216,416C216,420.415 212.415,424 208,424L200,424C200,424 200,432 200,432C200,436.415 203.585,440 208,440L304,440C308.415,440 312,436.415 312,432L312,336C312,331.585 308.415,328 304,328L208,328C203.585,328 200,331.585 200,336L200,344Z" style="fill:rgb(6,99,179);"/>
    <path d="M312,168C312,168 304,168 304,168C299.585,168 296,164.415 296,160C296,155.585 299.585,152 304,152L312,152C312,152 312,104 312,104C312,104 304,104 304,104C299.585,104 296,100.415 296,96C296,91.585 299.585,88 304,88L312,88C312,88 312,80 312,80C312,75.585 308.415,72 304,72L208,72C203.585,72 200,75.585 200,80L200,176C200,180.415 203.585,184 208,184L304,184C308.415,184 312,180.415 312,176L312,168Z" style="fill:rgb(10,135,243);"/>
    <path d="M328,88C328,88 336,88 336,88C340.415,88 344,91.585 344,96C344,100.415 340.415,104 336,104L328,104C328,104 328,152 328,152C328,152 336,152 336,152C340.415,152 344,155.585 344,160C344,164.415 340.415,168 336,168L328,168C328,168 328,176 328,176C328,180.415 331.585,184 336,184L432,184C436.415,184 440,180.415 440,176L440,80C440,75.585 436.415,72 432,72L336,72C331.585,72 328,75.585 328,80L328,88Z" style="fill:rgb(9,119,213);"/>
    <path d="M408,312C408,312 408,304 408,304C408,299.585 411.585,296 416,296C420.415,296 424,299.585 424,304L424,312C424,312 432,312 432,312C436.415,312 440,308.415 440,304L440,208C440,203.585 436.415,200 432,200L336,200C331.585,200 328,203.585 328,208L328,304C328,308.415 331.585,312 336,312L344,312C344,312 344,304 344,304C344,299.585 347.585,296 352,296C356.415,296 360,299.585 360,304L360,312L408,312Z" style="fill:rgb(6,99,179);"/>
    <path d="M360,328C360,328 360,336 360,336C360,340.415 356.415,344 352,344C347.585,344 344,340.415 344,336L344,328C344,328 336,328 336,328C331.585,328 328,331.585 328,336L328,432C328,436.415 331.585,440 336,440L432,440C436.415,440 440,436.415 440,432L440,336C440,331.585 436.415,328 432,328L424,328C424,328 424,336 424,336C424,340.415 420.415,344 416,344C411.585,344 408,340.415 408,336L408,328L360,328Z" style="fill:rgb(7,85,153);"/>
</svg>
